/* XPM */
static const char *ball[] = {
/* columns rows colors chars-per-pixel */
"32 32 165 2 ",
"   c #3C3C3C",
".  c #3E3E3E",
"X  c #3F3F3F",
"o  c #404040",
"O  c #414141",
"+  c #424242",
"@  c #434343",
"#  c #444444",
"$  c #454545",
"%  c #464646",
"&  c #484848",
"*  c #494949",
"=  c #4A4A4A",
"-  c #4B4B4B",
";  c #4C4C4C",
":  c #4D4D4D",
">  c #4E4E4E",
",  c #4F4F4F",
"<  c #505050",
"1  c #515151",
"2  c #525252",
"3  c #535353",
"4  c #545454",
"5  c #555555",
"6  c #575757",
"7  c #585858",
"8  c #595959",
"9  c #5B5B5B",
"0  c #5C5C5C",
"q  c #5D5D5D",
"w  c #5F5F5F",
"e  c #606060",
"r  c #616161",
"t  c #636363",
"y  c #656565",
"u  c #666666",
"i  c #676767",
"p  c #686868",
"a  c #696969",
"s  c #6B6B6B",
"d  c #6C6C6C",
"f  c #6D6D6D",
"g  c #6E6E6E",
"h  c #6F6F6F",
"j  c #707070",
"k  c #717171",
"l  c #727272",
"z  c #737373",
"x  c #747474",
"c  c #767676",
"v  c #777777",
"b  c #787878",
"n  c #797979",
"m  c #7B7B7B",
"M  c #7F7F7F",
"N  c #808080",
"B  c #828282",
"V  c #838383",
"C  c #848484",
"Z  c #858585",
"A  c #888888",
"S  c #8A8A8A",
"D  c #8D8D8D",
"F  c #919191",
"G  c #929292",
"H  c #939393",
"J  c #949494",
"K  c #969696",
"L  c #989898",
"P  c #999999",
"I  c #9A9A9A",
"U  c #9B9B9B",
"Y  c #9C9C9C",
"T  c #9D9D9D",
"R  c #9E9E9E",
"E  c #9F9F9F",
"W  c #A0A0A0",
"Q  c #A1A1A1",
"!  c #A7A7A7",
"~  c #A8A8A8",
"^  c #A9A9A9",
"/  c #AAAAAA",
"(  c #ABABAB",
")  c #ACACAC",
"_  c #ADADAD",
"`  c #AEAEAE",
"'  c #AFAFAF",
"]  c #B0B0B0",
"[  c #B1B1B1",
"{  c #B2B2B2",
"}  c #B3B3B3",
"|  c #B4B4B4",
" . c #B5B5B5",
".. c #B8B8B8",
"X. c #B9B9B9",
"o. c #BBBBBB",
"O. c #BCBCBC",
"+. c #BDBDBD",
"@. c #BEBEBE",
"#. c #BFBFBF",
"$. c #C0C0C0",
"%. c #C1C1C1",
"&. c #C2C2C2",
"*. c #C3C3C3",
"=. c #C4C4C4",
"-. c #C5C5C5",
";. c #C6C6C6",
":. c #C7C7C7",
">. c #C8C8C8",
",. c #C9C9C9",
"<. c #CACACA",
"1. c #CBCBCB",
"2. c #CCCCCC",
"3. c #CDCDCD",
"4. c #CECECE",
"5. c #CFCFCF",
"6. c #D0D0D0",
"7. c #D1D1D1",
"8. c #D2D2D2",
"9. c #D3D3D3",
"0. c #D4D4D4",
"q. c #D5D5D5",
"w. c #D6D6D6",
"e. c #D7D7D7",
"r. c #D8D8D8",
"t. c #D9D9D9",
"y. c #DADADA",
"u. c #DBDBDB",
"i. c #DCDCDC",
"p. c #DDDDDD",
"a. c #DEDEDE",
"s. c #DFDFDF",
"d. c #E0E0E0",
"f. c #E1E1E1",
"g. c #E2E2E2",
"h. c #E3E3E3",
"j. c #E4E4E4",
"k. c #E5E5E5",
"l. c #E6E6E6",
"z. c #E7E7E7",
"x. c #E8E8E8",
"c. c #E9E9E9",
"v. c #EAEAEA",
"b. c #EBEBEB",
"n. c #ECECEC",
"m. c #EDEDED",
"M. c #EEEEEE",
"N. c #EFEFEF",
"B. c #F0F0F0",
"V. c #F1F1F1",
"C. c #F2F2F2",
"Z. c #F3F3F3",
"A. c #F4F4F4",
"S. c #F5F5F5",
"D. c #F6F6F6",
"F. c #F7F7F7",
"G. c #F8F8F8",
"H. c #F9F9F9",
"J. c #FAFAFA",
"K. c #FBFBFB",
"L. c #FCFCFC",
"P. c #FDFDFD",
"I. c #FEFEFE",
"U. c #FFFFFF",
"Y. c #00FF00",
/* pixels */
"Y.Y.Y.Y.Y.Y.Y.Y.Y.Y.Y.1.1.1.1.1.1.1.1.1.1.Y.Y.Y.Y.Y.Y.Y.Y.Y.Y.Y.",
"Y.Y.Y.Y.Y.Y.Y.Y.Y.Y.1.1.1.1.2.2.2.2.2.2.2.2.Y.Y.Y.Y.Y.Y.Y.Y.Y.Y.",
"Y.Y.Y.Y.Y.Y.Y.1.1.2.2.2.2.2.1.1.1.1.1.1.1.1.2.1.1.Y.Y.Y.Y.Y.Y.Y.",
"Y.Y.Y.Y.Y.Y.2.1.1.2.8.t.a.t.O.! Q E E Q ( o.:.1.2.2.Y.Y.Y.Y.Y.Y.",
"Y.Y.Y.Y.Y.2.2.2.8.0.a.v.Z.l.[ Z l u p d n K [ &.1.2.2.Y.Y.Y.Y.Y.",
"Y.Y.Y.Y.1.1.2.0.a.v.Z.S.P.Z.&.D 0 = , 2 6 e v E o.:.2.1.Y.Y.Y.Y.",
"Y.Y.Y.1.1.2.8.d.N.P.P.P.P.H.t.` v 7 6 2 , 2 u I o.1.2.1.1.Y.Y.Y.",
"Y.Y.1.1.2.8.a.N.H.P.P.P.P.P.S.d.:.( F v p B ( 0.l.t.8.2.1.1.Y.Y.",
"Y.Y.1.1.2.a.N.H.P.P.P.P.P.P.P.P.S.l.1.` Q O.a.S.H.N.a.2.1.1.Y.Y.",
"Y.Y.2.2.0.v.H.P.P.P.P.P.P.P.P.P.P.H.S.N.v.Z.H.P.P.H.v.0.2.2.Y.Y.",
"Y.1.2.8.a.l.d.:.| | o.1.l.P.P.P.P.P.P.P.P.P.P.P.P.P.Z.a.8.2.1.Y.",
"1.1.2.t.l.t.| l , 2 e M &.P.P.P.P.P.P.P.P.P.P.P.P.P.S.v.t.2.1.1.",
"1.1.2.d.N.8.E 0 X X % 0 ( Z.P.P.P.P.P.P.P.H.H.P.P.P.H.Z.a.2.1.1.",
"1.1.2.l.Z.:.F 0 + % + , I l.H.P.P.P.P.P.S.d.t.v.S.P.P.S.d.2.1.1.",
"2.1.2.l.Z.O.B 6 % % X % S 8.Z.P.P.P.P.v.1.I B Q :.N.P.H.d.2.1.2.",
"2.1.2.l.S.&.Z 6 + % 2 p E 0.Z.P.P.H.v.:.K e = u K 0.S.P.l.2.1.2.",
"2.1.2.l.S.8.E 0 + = n o.a.Z.P.P.P.l.| Z 0 = % = l [ d.H.l.2.1.2.",
"2.1.2.l.H.v.&.S l B [ v.H.P.P.P.P.a.E p % + % + u | l.S.l.2.1.2.",
"1.1.2.d.S.H.N.1.&.t.N.H.P.P.P.P.P.a.Q d = % % + l 8.H.S.d.2.1.1.",
"1.1.2.a.Z.P.H.v.v.H.P.P.P.P.P.P.P.d.( l % X + = B a.P.Z.a.2.1.1.",
"1.1.2.t.v.S.P.P.P.P.P.P.P.P.P.P.P.v.o.B 6 , 6 e I v.P.v.t.2.1.1.",
"Y.1.2.8.a.Z.P.P.P.P.P.P.P.P.P.P.P.Z.t.o.I K E ( 1.S.S.a.8.2.1.Y.",
"Y.Y.2.2.0.N.P.P.P.H.S.S.H.P.P.P.P.P.S.l.t.t.a.l.Z.H.N.0.2.2.Y.Y.",
"Y.Y.2.2.8.d.S.P.S.a.8.8.l.H.P.P.P.P.P.H.S.S.S.H.H.Z.d.8.1.1.Y.Y.",
"Y.Y.1.1.2.t.l.N.t.` I I ` :.0.l.H.P.P.P.P.P.P.P.S.l.t.2.1.1.Y.Y.",
"Y.Y.Y.2.2.2.8.2.( p 6 7 7 p Z [ v.P.P.P.P.P.P.Z.l.0.2.2.1.Y.Y.Y.",
"Y.Y.Y.Y.2.1.1.:.( n 7 = + + 2 B 8.H.P.P.P.S.N.d.0.2.1.1.Y.Y.Y.Y.",
"Y.Y.Y.Y.Y.1.1.2.&.[ D u 2 , = d o.l.H.H.Z.l.t.8.2.1.1.Y.Y.Y.Y.Y.",
"Y.Y.Y.Y.Y.Y.1.2.1.:.[ E F D S I O.t.d.d.a.0.8.2.1.1.Y.Y.Y.Y.Y.Y.",
"Y.Y.Y.Y.Y.Y.Y.1.1.1.1.1.1.1.1.1.2.2.2.2.2.2.2.2.1.Y.Y.Y.Y.Y.Y.Y.",
"Y.Y.Y.Y.Y.Y.Y.Y.Y.Y.2.2.2.2.2.2.2.2.1.1.1.1.Y.Y.Y.Y.Y.Y.Y.Y.Y.Y.",
"Y.Y.Y.Y.Y.Y.Y.Y.Y.Y.Y.1.2.2.2.2.2.2.2.2.1.Y.Y.Y.Y.Y.Y.Y.Y.Y.Y.Y."
};
