/* XPM */
static const char *exit[] = {
/* columns rows colors chars-per-pixel */
"32 32 133 2 ",
"   c #0CFD0D",
".  c #0FFD10",
"X  c #13FC14",
"o  c #17FC18",
"O  c #1BFB1C",
"+  c #23FA24",
"@  c #26F42D",
"#  c #28F42F",
"$  c #26FA28",
"%  c #2BF92D",
"&  c #2FF830",
"*  c #35F737",
"=  c #33F835",
"-  c #36F739",
";  c #38F73A",
":  c #3FF641",
">  c #42F545",
",  c #46F548",
"<  c #4CF44E",
"1  c #4EF451",
"2  c #51F354",
"3  c #56F359",
"4  c #5AF25D",
"5  c #5BED63",
"6  c #5EF261",
"7  c #61F165",
"8  c #66F06A",
"9  c #6AF06D",
"0  c #6DED73",
"q  c #6FEA78",
"w  c #72EF76",
"e  c #76EE7A",
"r  c #79EE7D",
"t  c #6CF070",
"y  c #7DED82",
"u  c #7FE889",
"i  c #81ED86",
"p  c #81E78B",
"a  c #86EC8B",
"s  c #89EB8E",
"d  c #87E692",
"f  c #8AE694",
"g  c #8DEB92",
"h  c #8FE59A",
"j  c #91EA96",
"k  c #94EA9A",
"l  c #99E99E",
"z  c #97E4A2",
"x  c #9AE4A5",
"c  c #9CE9A2",
"v  c #A0E8A6",
"b  c #A5E6AB",
"n  c #A8E7AE",
"m  c #A3E8A9",
"M  c #ACE6B2",
"N  c #B0E6B7",
"B  c #B4E5BB",
"V  c #B8E5BF",
"C  c #B9DFC6",
"Z  c #BDE4C4",
"A  c #C0E3C7",
"S  c #C1E4C7",
"D  c #C1E4C7",
"F  c #C1E3C8",
"G  c #C2E3C8",
"H  c #C2E3C9",
"J  c #C3E3CA",
"K  c #C4E3CB",
"L  c #C5E3CC",
"P  c #C6E3CD",
"I  c #C7E3CD",
"U  c #C7E2CE",
"Y  c #C5E3CC",
"T  c #C8E3CF",
"R  c #C8E2CF",
"E  c #CAE2D2",
"W  c #CBE2D2",
"Q  c #CBE2D3",
"!  c #CCE2D3",
"~  c #CEE1D5",
"^  c #CCE2D4",
"/  c #CDE2D4",
"(  c #CDE2D5",
")  c #CEE1D6",
"_  c #CFE1D7",
"`  c #CBE2D2",
"'  c #D0E1D7",
"]  c #D0E1D7",
"[  c #D0E1D8",
"{  c #D1E1D8",
"}  c #D2E1D9",
"|  c #D3E1DA",
" . c #D3E1DB",
".. c #D4E1DB",
"X. c #D4E1DC",
"o. c #D5E0DD",
"O. c #D6E0DE",
"+. c #D7E0DE",
"@. c #D7E0DF",
"#. c #D3E1DA",
"$. c #DCDFE3",
"%. c #DADAE7",
"&. c #DCDFE4",
"*. c #DEDAEB",
"=. c #DFDAEC",
"-. c #DEDAEB",
";. c #E1DAEE",
":. c #E3D9F1",
">. c #E4D9F2",
",. c #E4D9F1",
"<. c #D5E6E4",
"1. c #D5E6E5",
"2. c #D5E6E4",
"3. c #D8E0E0",
"4. c #DAE0E2",
"5. c #DBE0E3",
"6. c #D9E0E1",
"7. c #D8E5E8",
"8. c #D9E5E9",
"9. c #DBE5EB",
"0. c #DFE4EE",
"q. c #DBE5EB",
"w. c #DEE0F1",
"e. c #DEE0F2",
"r. c #DEE0F1",
"t. c #E0E4F0",
"y. c #E1E4F1",
"u. c #E2E4F2",
"i. c #E3E4F3",
"p. c #E6E3F6",
"a. c #E7E3F7",
"s. c #E5E4F5",
"d. c #E4E4F4",
/* pixels */
"w.p.0 O _ 4 %  .: >  .% 6 E o r Z   j n   M j . Z e o E 4 @ 7.w.",
"w.p.0 O _ 4 %  .: >  .% 6 E o r Z   j n   M j . Z e o E 4 @ 7.w.",
"w.p.0 O _ 4 %  .: >  .% 6 E o r Z   j n   M j . Z e o E 4 @ 7.w.",
"w.p.0 O _ 4 % O.: > O.% 6 _ o r Z   k M   M j X A e O _ 4 @ 7.w.",
"w.p.q $ F 4 * I , < I = 6 Z $ e N O g v o m g O B e $ S 6 * 7.w.",
"w.7.h v ; y l = g s = l r ; m 9 > M 4 1 M < 4 M > t m ; r C y.w.",
"w.1.x I X g V   b v   Z a X ! 9 $ O.1 ; 4.- 2 O.+ 0 E X a :.y.w.",
"w.1.x F X a N   v c   V i X I 8 +  .< - ..* 1 ' + 9 I X i *.y.w.",
"w.1.x F X a N   v c   V i X I 8 +  .1 - O.* 1  .+ 9 I X i =.y.w.",
"w.1.z Z X a M X c l X N i o F 8 $ _ 1 ; ' - 2 ! $ 9 F o i %.y.w.",
"w.y.y < l 8 2 l 4 6 l 2 8 l < w j , y s > s y , j w < l 8 5 7.w.",
"w.p.q O ..4 & 4.> , 4.% 7  .o y F . l M   N k X K r O  .6 @ 7.w.",
"w.p.0 O _ 4 %  .: >  .% 6 E o r Z   j n   M j . Z e o E 4 @ 7.w.",
"w.p.0 O _ 4 %  .: >  .% 6 E o r Z   j n   M j X Z e o ! 4 @ 7.w.",
"w.p.0 O _ 4 % O.: > O.% 6 ! o r Z   j n   M j X Z e o _ 4 @ 7.w.",
"w.7.d i 4 e y 4 r r 4 i e 4 a 0 6 a 8 7 a 7 9 a 6 0 a 4 w z 0.w.",
"w.1.x T X g V   m v   Z a X _ 9 $ 4.1 ; 4.- 2 O.+ 0 ! X a >.y.w.",
"w.1.z F X a N   v c   V i X I 8 +  .< - ..* 1 ' + 9 I X i *.y.w.",
"w.1.x F X a N   v c   V i X I 8 +  .< - O.* 1 ' + 9 I X i *.y.w.",
"w.1.x I X s V   m v   Z a X E 9 $ O.1 ; 4.- 2 O.+ t E X a :.y.w.",
"w.0.p 9 w 0 0 w 0 0 w 0 0 w 0 w w t w w t w w 0 w w 0 w t u 0.w.",
"w.p.0 O  .4 & 4.> , 4.% 7  .o y F   l M   M k X K r O  .6 @ 7.w.",
"w.p.0 O _ 4 %  .: >  .% 6 E o r Z   j n   M j . Z e o ! 4 @ 7.w.",
"w.p.0 O _ 4 %  .: >  .% 6 E o r Z   j n   M j . Z e o ! 4 @ 7.w.",
"w.p.q O  .4 & 4.> , 4.% 7  .o y F . l M   N k X K r O  .6 @ 7.w.",
"w.0.u 7 y 9 8 i 8 9 i 7 t y 7 w y 6 e r 6 r e 6 y w 7 y 9 e 0.w.",
"w.1.x F X s B   m c   V a X E 9 $ ..1 ; O.* 2  .+ 9 T X a ;.y.w.",
"w.1.z S X a N   v c   V i X I 8 +  .< - O.* 1 ' + 9 I X i *.y.w.",
"w.1.z S X a N   v c   V i X I 8 +  .< - ..= 1 ' + 9 K X i *.y.w.",
"w.1.x T X g V   b v   Z a X _ 9 $ 4.1 ; 4.- 2 O.+ 0 ! X a >.y.w.",
"w.7.f s 2 r a 1 i y 1 a e 2 g 0 3 j 7 4 j 4 8 j 3 0 g 2 e b 0.w.",
"w.p.0 O E 4 &  .> >  .% 6 E O r Z X j b   n j X Z e O E 4 # 7.w."
};
