/* XPM */
static const char *player[] = {
/* columns rows colors chars-per-pixel */
"32 32 133 2 ",
"   c #7F3623",
".  c #8C3E1E",
"X  c #803723",
"o  c #823925",
"O  c #893E29",
"+  c #91401A",
"@  c #A3480E",
"#  c #A54B11",
"$  c #AA4E12",
"%  c #A94D1F",
"&  c #AF5012",
"*  c #A8571E",
"=  c #A9581E",
"-  c #B35213",
";  c #BC5613",
":  c #8D402B",
">  c #96462D",
",  c #954630",
"<  c #9E4B34",
"1  c #A64D22",
"2  c #B15E24",
"3  c #A34F37",
"4  c #A44F38",
"5  c #AA5236",
"6  c #AC543C",
"7  c #BE5C30",
"8  c #B0573E",
"9  c #BD5E3F",
"0  c #B2743F",
"q  c #C45A14",
"w  c #CB5C14",
"e  c #D15F15",
"r  c #D36015",
"t  c #DC6416",
"y  c #D46118",
"u  c #DB651F",
"i  c #E16716",
"p  c #E56917",
"a  c #E86A17",
"s  c #E16718",
"d  c #E96F1C",
"f  c #EA711F",
"g  c #C45D2A",
"h  c #C15F3C",
"j  c #CD6520",
"k  c #D86527",
"l  c #DF6820",
"z  c #D2642D",
"x  c #C76034",
"c  c #C96236",
"v  c #C5613A",
"b  c #CC693C",
"n  c #D06A39",
"m  c #DD7335",
"M  c #D27937",
"N  c #D9743B",
"B  c #E16E21",
"V  c #E97322",
"C  c #E9782A",
"Z  c #E97C32",
"A  c #BB5E44",
"S  c #BC6146",
"D  c #BE6449",
"F  c #B37641",
"G  c #BB7E47",
"H  c #C36C4E",
"J  c #C36D50",
"K  c #C57154",
"L  c #C77558",
"P  c #C87759",
"I  c #C97A5B",
"U  c #CC7F60",
"Y  c #ED873E",
"T  c #BA8B57",
"R  c #BB8C58",
"E  c #C3945F",
"W  c #E78C48",
"Q  c #F19A56",
"!  c #CD8061",
"~  c #C39D6B",
"^  c #D5906E",
"/  c #DA926A",
"(  c #D79471",
")  c #D89572",
"_  c #DA9A76",
"`  c #DC9D79",
"'  c #C3A16E",
"]  c #DFA66F",
"[  c #C6A472",
"{  c #C8A673",
"}  c #D1AE7C",
"|  c #D2B17F",
" . c #ECA163",
".. c #F5A969",
"X. c #F7B77C",
"o. c #F8BA7E",
"O. c #D4B381",
"+. c #DCBC8B",
"@. c #E1A680",
"#. c #E5AD87",
"$. c #E5AE88",
"%. c #E4B682",
"&. c #E7B28B",
"*. c #E9B68E",
"=. c #E0BF8E",
"-. c #EDBE94",
";. c #F6C28D",
":. c #FAC288",
">. c #E4C493",
",. c #EFC398",
"<. c #EBCC9C",
"1. c #F6C894",
"2. c #FACA94",
"3. c #F2C79D",
"4. c #F4CA9F",
"5. c #FCD19D",
"6. c #F4CCA0",
"7. c #F3D3A4",
"8. c #F9D3A5",
"9. c #F9D7A9",
"0. c #FADCAC",
"q. c #FBDEAE",
"w. c #FEDDAD",
"e. c #FDDDAF",
"r. c #FBD9AA",
"t. c #FFE0B0",
"y. c #FFE1B3",
"u. c #FFE2B3",
"i. c #FFE3B3",
"p. c #FFE4B4",
"a. c #FFE4B5",
"s. c #00FF00",
"d. c black",
/* pixels */
"s.s.s.s.s.s.s.s.s.s.s.s.# # # # # # # # s.s.s.s.s.s.s.s.s.s.s.s.",
"s.s.s.s.s.s.s.s.s.# # # # # $ $ $ # $ # # # # # s.s.s.s.s.s.s.s.",
"s.s.s.s.s.s.s.s.# # # $ ; q r r r r r w ; - $ # # # s.s.s.s.s.s.",
"s.s.s.s.s.s.s.s.# $ ; t i p p p p p p p i t q $ # # s.s.s.s.s.s.",
"s.s.s.s.s.s.# # $ w t p a a a a a a a a a a t w - # # s.s.s.s.s.",
"s.s.s.s.s.s.# $ ; t a a a a a a a a a a a a a p w - # s.s.s.s.s.",
"s.s.s.s.s.# # - e i a a a a a a a a a a a a a a t q $ # # s.s.s.",
"s.s.s.s.s.# # ; y l k z c v v v v v b N Z f a p t w $ # # s.s.s.",
"s.s.s.  o . + 1 7 h h A A A A A A A J / ;.:...Y B w $ # @ s.s.s.",
"s.s.s.o o o > 5 A A A A A A A A A S ! #.w.t.r.2. .M 2 * = s.s.s.",
"s.s.  o O , 6 A A A A A A A A A A S I ` ,.r.p.t.8.%.E T R s.s.s.",
"s.s.o o , 8 A A A A A A A A A A A A D J I ) *.r.t.7.| [ [ s.s.s.",
"s.s.o : 4 A A A A A A A A A A A A A A A A D P _ 3.q.>.} ' ' s.s.",
"  o O < 8 A A A A A A A A A A A A A A A A A A D ` 6.9.+.{ ' s.s.",
"    O 6 A A A A A A A A A A A A A A A A A A A A I @.9.<.O.[ s.s.",
"o o O 8 S A A A A A A A A A A A A A A A A A A A J ( 8.7.+.{ s.s.",
"o o O 8 S A A A A A A A A A A A A A A A A A A A K _ 9.7.+.{ s.s.",
"o   O 6 A A A A A A A A A A A A A A A A A A A A U #.r.<.O.[ s.s.",
"    o < 8 A A A A A A A A A A A A A A A A A A H ` 6.9.=.{ ' s.s.",
"  o o : 3 A A A A A A A A A A A A A A A A S L ` 4.q.<.| ' ' s.s.",
"s.s.o o , 6 A A A A A A A A A A A A D J I ^ &.r.t.7.} ~ ~ s.s.s.",
"s.s.X o O , 6 A A A A A A A A A A S I _ -.r.p.w.1.] G 0 F s.s.s.",
"s.s.s.o o o > 5 9 A A A A A A A A S ! $.w.t.5.X.W j $ @ @ s.s.s.",
"s.s.s.s.s.. + % g x v A A A A A A A H / ;.o.Q V i w $ # # s.s.s.",
"s.s.s.s.s.# # ; r s l z c v v v v v n m C d a a t w $ # # s.s.s.",
"s.s.s.s.s.# # - w i a a a a a a a a a a a a a p r ; $ # # s.s.s.",
"s.s.s.s.s.s.# $ ; t a a a a a a a a a a a a a i w & # s.s.s.s.s.",
"s.s.s.s.s.s.# # $ q t p a a a a a a a a a p t w - # # s.s.s.s.s.",
"s.s.s.s.s.s.s.s.# $ - w t p p p p p p p i r q $ # # s.s.s.s.s.s.",
"s.s.s.s.s.s.s.s.# # # $ - q r r r r w ; - $ # # # # s.s.s.s.s.s.",
"s.s.s.s.s.s.s.s.s.s.s.# # # $ $ # # # # # # # s.s.s.s.s.s.s.s.s.",
"s.s.s.s.s.s.s.s.s.s.s.s.s.s.# # # # # # s.s.s.s.s.s.s.s.s.s.s.s."
};
